<svg width="1243" height="1243" viewBox="0 0 1243 1243" fill="none" xmlns="http://www.w3.org/2000/svg">
<path d="M940.5 1110H342.5V364.5L473 234H837V340.5L753 424.5L846.5 723.5L958.5 753V880.5C904.314 885.163 904.302 930.621 909 958.5L940.5 1110Z" fill="black"/>
<path d="M342.5 1110H323V1129.5H342.5V1110ZM940.5 1110V1129.5H964.471L959.592 1106.03L940.5 1110ZM909 958.5L889.771 961.74L889.833 962.106L889.908 962.47L909 958.5ZM958.5 880.5L960.172 899.928C970.256 899.06 978 890.621 978 880.5H958.5ZM958.5 753H978V737.971L963.467 734.143L958.5 753ZM846.5 723.5L827.889 729.32L831.107 739.611L841.533 742.357L846.5 723.5ZM753 424.5L739.211 410.711L730.867 419.056L734.389 430.32L753 424.5ZM837 340.5L850.789 354.289L856.5 348.577V340.5H837ZM837 234H856.5V214.5H837V234ZM473 234V214.5H464.923L459.211 220.211L473 234ZM342.5 364.5L328.711 350.711L323 356.423V364.5H342.5ZM342.5 1129.5H940.5V1090.5H342.5V1129.5ZM959.592 1106.03L928.092 954.53L889.908 962.47L921.408 1113.97L959.592 1106.03ZM928.229 955.26C926.04 942.269 925.635 928.357 929.768 918.053C931.664 913.324 934.439 909.539 938.526 906.64C942.688 903.688 949.34 900.86 960.172 899.928L956.828 861.072C940.568 862.471 926.898 867.074 915.964 874.829C904.957 882.636 897.863 892.832 893.57 903.536C885.324 924.096 887.262 946.852 889.771 961.74L928.229 955.26ZM978 880.5V753H939V880.5H978ZM963.467 734.143L851.467 704.643L841.533 742.357L953.533 771.857L963.467 734.143ZM865.111 717.68L771.611 418.68L734.389 430.32L827.889 729.32L865.111 717.68ZM766.789 438.289L850.789 354.289L823.211 326.711L739.211 410.711L766.789 438.289ZM856.5 340.5V234H817.5V340.5H856.5ZM837 214.5H473V253.5H837V214.5ZM459.211 220.211L328.711 350.711L356.289 378.289L486.789 247.789L459.211 220.211ZM323 364.5V1110H362V364.5H323Z" fill="white"/>
<path d="M964 880H590.5" stroke="white" stroke-width="39"/>
<path d="M959 755H590.5" stroke="white" stroke-width="39"/>
<path d="M760 424H386.5" stroke="white" stroke-width="39"/>
<path d="M469 341.5H836.5" stroke="white" stroke-width="39"/>
<mask id="path-7-inside-1_43_25" fill="white">
<path d="M596.998 748.958C625.243 739.742 649.176 720.575 664.341 695.027C679.505 669.478 684.868 639.289 679.431 610.08C673.993 580.872 658.126 554.635 634.784 536.255C611.441 517.875 582.214 508.605 552.545 510.17C522.876 511.736 494.787 524.03 473.509 544.765C452.23 565.499 439.212 593.26 436.878 622.879C434.545 652.497 443.055 681.954 460.824 705.765C478.593 729.576 504.41 746.117 533.468 752.31L541.255 715.772C521.058 711.468 503.115 699.971 490.764 683.422C478.414 666.872 472.5 646.399 474.121 625.813C475.743 605.227 484.791 585.932 499.581 571.521C514.37 557.11 533.893 548.565 554.514 547.477C575.135 546.389 595.448 552.832 611.672 565.607C627.896 578.381 638.924 596.617 642.704 616.918C646.483 637.219 642.755 658.201 632.215 675.958C621.675 693.715 605.041 707.037 585.41 713.442L596.998 748.958Z"/>
</mask>
<path d="M596.998 748.958C625.243 739.742 649.176 720.575 664.341 695.027C679.505 669.478 684.868 639.289 679.431 610.08C673.993 580.872 658.126 554.635 634.784 536.255C611.441 517.875 582.214 508.605 552.545 510.17C522.876 511.736 494.787 524.03 473.509 544.765C452.23 565.499 439.212 593.26 436.878 622.879C434.545 652.497 443.055 681.954 460.824 705.765C478.593 729.576 504.41 746.117 533.468 752.31L541.255 715.772C521.058 711.468 503.115 699.971 490.764 683.422C478.414 666.872 472.5 646.399 474.121 625.813C475.743 605.227 484.791 585.932 499.581 571.521C514.37 557.11 533.893 548.565 554.514 547.477C575.135 546.389 595.448 552.832 611.672 565.607C627.896 578.381 638.924 596.617 642.704 616.918C646.483 637.219 642.755 658.201 632.215 675.958C621.675 693.715 605.041 707.037 585.41 713.442L596.998 748.958Z" fill="white" stroke="white" stroke-width="78" mask="url(#path-7-inside-1_43_25)"/>
<path d="M853 723H483.5" stroke="white" stroke-width="39"/>
<circle cx="804" cy="593" r="75.5" fill="black" stroke="white" stroke-width="39"/>
<circle cx="749" cy="399.5" r="68" fill="black" stroke="white" stroke-width="39"/>
<circle cx="920" cy="341.5" r="48" fill="black" stroke="white" stroke-width="39"/>
<circle cx="868" cy="191" r="38.5" fill="black" stroke="white" stroke-width="39"/>
<path d="M573 1110H255V364.5L385.5 234H469.5V340.5L385.5 424.5L479 723.5L591 753V880.5C536.814 885.163 536.802 930.621 541.5 958.5L573 1110Z" fill="black"/>
<path d="M255 1110H235.5V1129.5H255V1110ZM573 1110V1129.5H596.971L592.092 1106.03L573 1110ZM541.5 958.5L522.271 961.74L522.333 962.106L522.408 962.47L541.5 958.5ZM591 880.5L592.672 899.928C602.756 899.06 610.5 890.621 610.5 880.5H591ZM591 753H610.5V737.971L595.967 734.143L591 753ZM479 723.5L460.389 729.32L463.607 739.611L474.033 742.357L479 723.5ZM385.5 424.5L371.711 410.711L363.367 419.056L366.889 430.32L385.5 424.5ZM469.5 340.5L483.289 354.289L489 348.577V340.5H469.5ZM469.5 234H489V214.5H469.5V234ZM385.5 234V214.5H377.423L371.711 220.211L385.5 234ZM255 364.5L241.211 350.711L235.5 356.423V364.5H255ZM255 1129.5H573V1090.5H255V1129.5ZM592.092 1106.03L560.592 954.53L522.408 962.47L553.908 1113.97L592.092 1106.03ZM560.729 955.26C558.54 942.269 558.135 928.357 562.268 918.053C564.164 913.324 566.939 909.539 571.026 906.64C575.188 903.688 581.84 900.86 592.672 899.928L589.328 861.072C573.068 862.471 559.398 867.074 548.464 874.829C537.457 882.636 530.363 892.832 526.07 903.536C517.824 924.096 519.762 946.852 522.271 961.74L560.729 955.26ZM610.5 880.5V753H571.5V880.5H610.5ZM595.967 734.143L483.967 704.643L474.033 742.357L586.033 771.857L595.967 734.143ZM497.611 717.68L404.111 418.68L366.889 430.32L460.389 729.32L497.611 717.68ZM399.289 438.289L483.289 354.289L455.711 326.711L371.711 410.711L399.289 438.289ZM489 340.5V234H450V340.5H489ZM469.5 214.5H385.5V253.5H469.5V214.5ZM235.5 364.5V1110H274.5V364.5H235.5ZM371.711 220.211L241.211 350.711L268.789 378.289L399.289 247.789L371.711 220.211Z" fill="white"/>
<rect x="293" y="1012.24" width="239.064" height="20" rx="10" transform="rotate(-30 293 1012.24)" fill="white"/>
<rect x="293" y="967.385" width="239.064" height="20" rx="10" transform="rotate(-30 293 967.385)" fill="white"/>
<rect x="293" y="922.532" width="239.064" height="20" rx="10" transform="rotate(-30 293 922.532)" fill="white"/>
<rect x="293" y="1057.09" width="239.064" height="20" rx="10" transform="rotate(-30 293 1057.09)" fill="white"/>
</svg>
